<?xml version="1.0" encoding="utf-8"?>
<!-- Generator: Adobe Illustrator 23.0.2, SVG Export Plug-In . SVG Version: 6.00 Build 0)  -->
<svg version="1.1" id="Layer_1" xmlns="http://www.w3.org/2000/svg" xmlns:xlink="http://www.w3.org/1999/xlink" x="0px" y="0px"
	 viewBox="0 0 1920 700" style="enable-background:new 0 0 1920 700;" xml:space="preserve">
<style type="text/css">
	.st0{fill:#11497C;}
	.st1{fill:#0068B4;}
</style>
<g>
	<rect class="st0" width="1920" height="700"/>
</g>
<path class="st1" d="M2.5,289.5l313.6,0.9c12.1,0,21.9,9.9,21.9,22v388.1h-51.9l1-340c0-12.2-9.8-22-22-22H2L2.5,289.5z"/>
<path class="st1" d="M720,700l1.4-371.1c0-12.1,9.9-21.9,22-21.9h388.1v51.9l-340-1c-12.2,0-22,9.8-22,22V700H720z"/>
<path class="st1" d="M1306.5,0.5l-0.9,336.6c0,12.1-9.9,21.9-22,21.9H895.5v-51.9l340,1c12.2,0,22-9.8,22-22V0L1306.5,0.5z"/>
<path class="st1" d="M1266.5,235.5l-325.6-0.9c-12.1,0-21.9-9.9-21.9-22V2.5h51.9l-1,162c0,12.2,9.8,22,22,22H1267L1266.5,235.5z"/>
<path class="st1" d="M191,0v338.5h-51.9l1-338"/>
<path class="st1" d="M1509,0v700.5h-51.9l1-699.4"/>
<path class="st1" d="M1479.5,319.5l381.6,0.9c12.1,0,21.9,9.9,21.9,22v358.1h-51.9l1-310c0-12.2-9.8-22-22-22H1479L1479.5,319.5z"/>
<path class="st1" d="M577,0v700h-51.9l1-698.9"/>
<path class="st1" d="M1157,350v350h-51.9l1-348.9"/>
</svg>
