<?xml version="1.0" encoding="utf-8"?>
<!-- Generator: Adobe Illustrator 23.0.2, SVG Export Plug-In . SVG Version: 6.00 Build 0)  -->
<svg version="1.1" id="_Grundfos_vers_A_100_mm" xmlns="http://www.w3.org/2000/svg" xmlns:xlink="http://www.w3.org/1999/xlink"
	 x="0px" y="0px" viewBox="0 0 291.1 44.7" style="enable-background:new 0 0 291.1 44.7;" xml:space="preserve">
<style type="text/css">
	.st0{fill:#FFFFFF;}
</style>
<g>
	<g>
		<g>
			<polygon class="st0" points="113.6,22.1 113.6,33.5 102.6,22.1 94.5,22.1 94.5,41 99.8,41 99.8,29.8 110.8,41 118.9,41 
				118.9,22.1 			"/>
			<path class="st0" d="M43.7,25.9H48c2.4,0,3.7,1.2,3.7,3.1c0,2.6-1.2,3.5-4.8,3.5l5.4,8.5h8.8l-5.5-8c0.9-0.1,4.5-0.6,4.5-5.5
				c0-5.3-5.3-5.4-8.8-5.4H35.8V41h7.9V25.9z"/>
			<path class="st0" d="M80.9,22.1v10.6c0,1.8-0.4,3-1.1,3.8c-0.7,0.7-1.7,1.1-3,1.1c-1.4,0-2.4-0.3-3-1.1c-0.7-0.8-1.1-2-1.1-3.8
				V22.1h-8v11.1c0,3,0.6,4.2,1.9,5.5c2,2,5.8,2.8,10.3,2.8c4.5,0,8.3-0.8,10.3-2.8c1.3-1.3,1.9-2.5,1.9-5.5V22.1H80.9z"/>
			<path class="st0" d="M137.8,22.1h-12.9V41h12.9c9.4,0,13.8-2,13.8-9.5C151.6,24,147.2,22.1,137.8,22.1z M136.9,37.1h-4.1V26h4.1
				c4.3,0,6.2,1.8,6.2,5.6C143.2,35.1,141,37.1,136.9,37.1z"/>
			<path class="st0" d="M194.3,21.5c-10.4,0-14.9,3.8-14.9,9.9c0,6.8,4.5,10.1,14.9,10.1c10.2,0,14.8-3.3,14.8-10.1
				C209.1,25.3,204.5,21.5,194.3,21.5z M194.2,37.7c-4.1,0-6.1-2.1-6.1-6.2c0-4.1,2-6.2,6.1-6.2c4.2,0,6.1,2.1,6.1,6.2
				C200.3,35.8,198.6,37.7,194.2,37.7z"/>
			<polygon class="st0" points="164.5,26.2 175.5,26.2 178,22.1 156.4,22.1 156.4,41 164.5,41 164.5,34.9 173.5,34.9 176.1,30.8 
				164.5,30.8 			"/>
		</g>
		<path class="st0" d="M22.6,31.9v5.4c0,0-2.3,0.3-3.4,0.3c-6.3,0-7-3.4-7-5.9c0-3.9,2.5-5.9,7.5-5.9c3.3,0,5.1,0.2,7.5,0.6l1,0.2
			l2.5-4.1c-5.6-0.7-9.1-0.7-12.1-0.7c-10.2,0-14.9,3.2-14.9,10.1c0,6.9,4.6,9.7,14.9,9.7c4.5,0,8.6-0.3,12-1.1v-8.5H22.6z"/>
		<path class="st0" d="M228.5,29.2c-3.7-0.6-6-0.6-6-2.3c0-1.7,3.7-1.8,6.1-1.8c1.4,0,4.2,0.3,6.3,0.7l2.3-3.7
			c-1.6-0.2-5.9-0.6-10.6-0.6c-8.5,0-13.9,1.5-13.9,5.6c0,4.4,4.6,5.2,9.2,5.9c3.6,0.6,5.9,0.7,5.9,2.4c0,1.9-3.2,2.2-6.3,2.2
			c-0.9,0-3.6-0.2-6.9-0.8l-2.7,4.3c3.5,0.4,5.2,0.7,11.7,0.7c9.5,0,13.9-1.7,13.9-6.4C237.5,31,232.9,29.9,228.5,29.2z"/>
	</g>
	<g>
		<g>
			<g>
				<g>
					<g>
						<path class="st0" d="M259.5,41h-10.1c7.2-7.2,14.2-14.2,14.2-14.2s0.9,0.5,2.7,2.3c1.9,1.8,2.4,2.7,2.4,2.7L259.5,41z"/>
					</g>
				</g>
				<g>
					<path class="st0" d="M254.8,30c-5.4-6.5-6.9-9.4-8.2-12.8c-0.9-2.2-1.9-6.4,0.3-8.6c2-2,5.8-1.3,9.8,0.5
						c4.5,2,9.6,5.7,14.5,10.2l16-16v10.1L272.5,28c0,0-1.6-1.7-2.4-2.5c-8.6-8.5-16.6-12.6-18.6-10.6c-2.7,2.6,5.6,12.2,5.8,12.6
						L254.8,30z"/>
				</g>
			</g>
			<g>
				<path class="st0" d="M287.2,41h-5.7c0,0-0.7-1.9-2.7-5c-2-3.1-3.8-4.9-3.8-4.9l3.8-3.8c1.6,1.9,3.2,4,4.7,6.5
					C285,36,286.3,38.4,287.2,41z"/>
			</g>
		</g>
	</g>
</g>
</svg>
